# xmcd
#
# Track frame offsets:
#	150
#	12500
#	22505
#	41447
#	54277
#	65457
#	74867
#	90752
#	106122
#	124922
#	137010
#	150712
#	168270
#	178962
#	192852
#	210335
#	222522
#	235507
#	246482
#	262020
#	274982
#	286307
#	295785
#	308242
#
# Disc length: 4324 seconds
# Revision: 0
# Processed by: cddbd v1.5.2PL0 Copyright (c) Steve Scherf et al.
# Submitted via: dBpowerAMP V12.0
#
DISCID=5b10e218
DTITLE=Various Artist - TM Century GoldDisc CX1
DYEAR=1990
DGENRE=Country Christmas
TTITLE0=Kenny Rogers and Dolly Parton - I'll Be Home With Bells On
TTITLE1=George Strait - Santa Claus Is Coming To Town
TTITLE2=Anne Murray - Silent Night
TTITLE3=Merle Haggard - Rudolph The Red-Nosed Reindeer
TTITLE4=Willie Nelson - Winter Wonderland
TTITLE5=Tammy Wynette and The O'Kanes - Away In A Manger
TTITLE6=The Statler Brothers - An Old Fashioned Christmas
TTITLE7=Alabama - Christmas Memories
TTITLE8=Larry Gatlin and The Gatlin Brothers - Medley--Hark! The Herald Angels Sing - What Child Is This - O Come, All Ye Faithful
TTITLE9=Chet Atkins - Let It Snow, Let It Snow, Let It Snow
TTITLE10=Ronnie Milsap - It's Christmas
TTITLE11=Reba McEntire - O Holy Night
TTITLE12=Mickey Gilley and Libby Hurley - Rockin' Around The Christmas Tree
TTITLE13=The Oak Ridge Boys - That's What I Like About Christmas
TTITLE14=Crystal Gayle - Have Yourself A Merry Little Christmas
TTITLE15=George Strait - Merry Christmas Strait To You
TTITLE16=The Forester Sisters - A Carpenter, A Mother and A King
TTITLE17=Willie Nelson - Frosty The Snowman
TTITLE18=Randy Travis - White Christmas Makes Me Blue
TTITLE19=Barbara Mandrell - Christmas At Our House
TTITLE20=Merle Haggard - Goin' Home For Christmas
TTITLE21=Chet Atkins - Jingle Bell Rock
TTITLE22=Anne Murray - Silver Bells
TTITLE23=Alabama - Christmas In Dixie
EXTD=
EXTT0=
EXTT1=
EXTT2=
EXTT3=
EXTT4=
EXTT5=
EXTT6=
EXTT7=
EXTT8=
EXTT9=
EXTT10=
EXTT11=
EXTT12=
EXTT13=
EXTT14=
EXTT15=
EXTT16=
EXTT17=
EXTT18=
EXTT19=
EXTT20=
EXTT21=
EXTT22=
EXTT23=
PLAYORDER=
